<svg height="512pt" viewBox="0 0 512 512.00159" width="512pt" xmlns="http://www.w3.org/2000/svg"><path d="m426.328125 361.3125-238.136719-238.136719c8.976563 8.976563 8.976563 23.53125 0 32.507813-8.976562 8.976562-23.53125 8.976562-32.507812 0l80 80c8.976562 8.976562 8.976562 23.53125 0 32.507812-8.976563 8.976563-23.53125 8.976563-32.507813 0l158.984375 158.984375zm0 0" fill="#fff5d7"/><path d="m172.535156 325.246094c7.84375 7.84375 7.84375 20.5625 0 28.402344-7.65625 7.660156-19.925781 7.78125-27.804687.484374l-19.859375-19.824218c7.84375 7.839844 7.84375 20.558594 0 28.402344-7.699219 7.703124-20.074219 7.796874-27.945313.371093l118.441407 118.441407 60.191406-53.417969zm0 0" fill="#fff5d7"/><path d="m343.878906 76.019531c7.84375 7.84375 7.84375 20.558594 0 28.402344-7.65625 7.660156-19.925781 7.78125-27.804687.484375l-19.855469-19.828125c7.839844 7.84375 7.839844 20.5625 0 28.402344-7.703125 7.703125-20.078125 7.796875-27.949219.375l118.441407 118.441406 60.191406-53.421875zm0 0" fill="#fff5d7"/><path d="m496.265625 374.570312-43.542969 7.238282c-3.519531.585937-7.007812-1.191406-8.601562-4.382813l-19.734375-39.480469c-5.886719-11.773437-23.421875-8.992187-25.378907 4.019532l-6.566406 43.648437c-.53125 3.527344-3.300781 6.296875-6.828125 6.824219l-20.871093 3.144531-21.574219 3.917969c-13.015625 1.957031-7.273438 16.449219 4.5 22.332031l32.832031 19.835938c3.191406 1.59375 7.085938 7.8125 6.5 11.332031l-10.25 42c-2.160156 12.980469 6.265625 13.875 15.5 4.5l33.5-28c2.503906-2.542969 15.085938-4.894531 18.25-3.25l33 24c11.679688 6.0625 14.566406-2.074219 8.5-13.75l1.1875-17.964844-11.71875-22.566406c-1.644531-3.167969-1.03125-7.035156 1.507812-9.535156l31.453126-30.972656c9.378906-9.230469 1.320312-25.050782-11.664063-22.890626zm0 0" fill="#ffe07d"/><g fill="#ffeaa8"><path d="m361.652344 369.777344c-2.078125 0-4.160156-.792969-5.746094-2.378906l-353.523438-353.523438c-3.175781-3.175781-3.175781-8.320312 0-11.492188 3.175782-3.175781 8.316407-3.175781 11.492188 0l353.523438 353.523438c3.175781 3.175781 3.175781 8.316406 0 11.492188-1.585938 1.585937-3.667969 2.378906-5.746094 2.378906zm0 0"/><path d="m373.84375 316.953125c-2.078125 0-4.160156-.792969-5.746094-2.382813l-215.367187-215.363281c-3.171875-3.175781-3.171875-8.316406 0-11.492187 3.175781-3.175782 8.320312-3.175782 11.492187 0l215.367188 215.367187c3.175781 3.171875 3.175781 8.316407 0 11.488281-1.585938 1.589844-3.667969 2.382813-5.746094 2.382813zm0 0"/><path d="m365.714844 162.539062c-2.078125 0-4.15625-.792968-5.746094-2.378906l-146.285156-146.285156c-3.175782-3.175781-3.175782-8.320312 0-11.492188 3.175781-3.175781 8.316406-3.175781 11.492187 0l146.285157 146.285157c3.175781 3.175781 3.175781 8.316406 0 11.492187-1.585938 1.585938-3.664063 2.378906-5.746094 2.378906zm0 0"/><path d="m377.90625 117.839844c-2.078125 0-4.160156-.792969-5.746094-2.378906l-44.699218-44.699219c-3.175782-3.175781-3.175782-8.316407 0-11.492188 3.175781-3.175781 8.316406-3.175781 11.492187 0l44.699219 44.699219c3.175781 3.175781 3.175781 8.316406 0 11.492188-1.585938 1.585937-3.667969 2.378906-5.746094 2.378906zm0 0"/><path d="m325.082031 178.792969c-2.078125 0-4.160156-.792969-5.746093-2.378907l-73.144532-73.144531c-3.175781-3.175781-3.175781-8.316406 0-11.492187 3.175782-3.175782 8.316406-3.175782 11.492188 0l73.144531 73.144531c3.175781 3.175781 3.175781 8.316406 0 11.492187-1.589844 1.585938-3.667969 2.378907-5.746094 2.378907zm0 0"/></g><path d="m282.972656 420-30.1875 5.019531-13.683594-27.371093c-3.589843-7.183594-14.292968-5.488282-15.488281 2.453124l-4.550781 30.257813-10.628906 1.601563-18.265625 4.371093c-7.941407 1.195313-6.851563 8.910157.332031 12.5l26.167969 15.167969-4.667969 29.167969c-1.316406 7.921875 3.867188 9.886719 9.5 4.167969l22-19.335938 28.335938 12.835938c7.125 3.699218 11.367187-.207032 7.664062-7.335938l-3.234375-12.691406-7.980469-15.363282 21.804688-21.472656c5.722656-5.636718.804687-15.289062-7.117188-13.972656zm0 0" fill="#ffe07d"/><path d="m308.828125 381.96875c-2.082031 0-4.160156-.792969-5.746094-2.378906l-138.160156-138.160156c-3.175781-3.175782-3.175781-8.316407 0-11.492188s8.316406-3.175781 11.492187 0l138.160157 138.160156c3.171875 3.171875 3.171875 8.316406 0 11.492188-1.589844 1.585937-3.667969 2.378906-5.746094 2.378906zm0 0" fill="#ffeaa8"/><path d="m486.691406 460.539062c-7.554687 1.710938-15.378906 2.699219-23.453125 2.699219-44.9375 0-83.222656-28.105469-98.492187-67.660156l-22.78125 3.429687c-13.011719 1.957032-15.789063 19.496094-4.019532 25.378907l39.484376 19.734375c3.1875 1.59375 4.96875 5.085937 4.382812 8.601562l-7.242188 43.546875c-2.15625 12.980469 13.664063 21.039063 22.894532 11.664063l30.96875-31.453125c2.503906-2.542969 6.371094-3.152344 9.539062-1.511719l39.175782 20.34375c11.675781 6.066406 24.230468-6.488281 18.167968-18.167969zm0 0" fill="#ffd064"/><path d="m282.386719 482.601562-6.121094-11.789062c-2.652344.328125-5.332031.554688-8.074219.554688-26.808594 0-49.816406-16.238282-59.757812-39.40625l-19.632813 2.957031c-7.941406 1.191406-9.636719 11.894531-2.453125 15.484375l27.371094 13.683594-5.019531 30.1875c-1.316407 7.921874 8.335937 12.839843 13.972656 7.117187l21.46875-21.804687 27.160156 14.101562c7.125 3.703125 14.789063-3.960938 11.085938-11.085938zm0 0" fill="#ffd064"/><path d="m455.332031 170.820312-30.1875 5.019532-13.683593-27.371094c-3.589844-7.183594-14.289063-5.492188-15.484376 2.453125l-4.554687 30.257813-10.628906 1.597656-18.542969 3.972656c-7.941406 1.195312-7.433594 9.910156-.25 13.5l26.5 13.75-5.25 30.5c-1.316406 7.921875 4.867188 10.222656 10.5 4.5l20.75-22 28.25 15c7.128906 3.703125 13.453125-1.371094 9.75-8.5l-3.871094-11.863281-7.984375-15.375 21.804688-21.472657c5.722656-5.632812.804687-15.289062-7.117188-13.96875zm0 0" fill="#ffe07d"/><path d="m454.746094 233.417969-6.121094-11.785157c-2.648438.328126-5.332031.550782-8.074219.550782-26.808593 0-49.816406-16.234375-59.757812-39.402344l-19.632813 2.953125c-7.941406 1.195313-9.636718 11.898437-2.453125 15.488281l27.371094 13.683594-5.019531 30.1875c-1.316406 7.921875 8.339844 12.839844 13.972656 7.117188l21.472656-21.804688 27.15625 14.101562c7.125 3.699219 14.789063-3.960937 11.085938-11.089843zm0 0" fill="#ffd064"/><path d="m193.328125 411.070312c-2.082031 0-4.160156-.792968-5.746094-2.378906l-146.285156-146.285156c-3.175781-3.175781-3.175781-8.316406 0-11.492188 3.171875-3.175781 8.316406-3.175781 11.488281 0l146.289063 146.285157c3.171875 3.175781 3.171875 8.316406 0 11.492187-1.589844 1.585938-3.667969 2.378906-5.746094 2.378906zm0 0" fill="#ffeaa8"/><path d="m205.515625 366.375c-2.078125 0-4.15625-.796875-5.746094-2.382812l-44.695312-44.699219c-3.175781-3.171875-3.175781-8.316407 0-11.492188 3.171875-3.171875 8.316406-3.171875 11.492187 0l44.695313 44.699219c3.175781 3.175781 3.175781 8.316406 0 11.492188-1.585938 1.589843-3.664063 2.382812-5.746094 2.382812zm0 0" fill="#ffeaa8"/><path d="m152.691406 427.328125c-2.078125 0-4.160156-.796875-5.746094-2.382813l-73.140624-73.144531c-3.175782-3.171875-3.175782-8.316406 0-11.492187 3.171874-3.171875 8.316406-3.171875 11.492187 0l73.140625 73.144531c3.175781 3.175781 3.175781 8.316406 0 11.492187-1.585938 1.585938-3.667969 2.382813-5.746094 2.382813zm0 0" fill="#ffeaa8"/></svg>