<svg height="512pt" viewBox="0 0 512 512.00075" width="512pt" xmlns="http://www.w3.org/2000/svg"><path d="m509.664062 372.597656c-4.203124-8.242187-12.8125-12.585937-21.9375-11.070312l-43.324218 7.207031-1.9375-3.882813c-1.851563-3.703124-6.359375-5.203124-10.0625-3.355468-3.703125 1.855468-5.207032 6.359375-3.351563 10.0625l4.414063 8.832031c1.472656 2.945313 4.6875 4.585937 7.9375 4.046875l48.785156-8.113281c3.886719-.644531 5.660156 2.195312 6.109375 3.082031.453125.886719 1.707031 3.996094-1.097656 6.753906l-35.238281 34.699219c-2.34375 2.3125-2.910157 5.878906-1.394532 8.800781l22.792969 43.890625c1.8125 3.492188-.339844 6.058594-1.042969 6.765625-.703125.703125-3.273437 2.859375-6.761718 1.042969l-43.894532-22.792969c-2.921875-1.515625-6.488281-.949218-8.796875 1.394532l-34.703125 35.238281c-2.757812 2.804687-5.867187 1.550781-6.753906 1.097656s-3.726562-2.226563-3.082031-6.109375l8.113281-48.785156c.539062-3.246094-1.101562-6.464844-4.046875-7.9375l-44.234375-22.113282c-3.523438-1.757812-3.285156-5.101562-3.132812-6.085937.15625-.980469.96875-4.234375 4.859374-4.820313l48.902344-7.359374c3.257813-.488282 5.8125-3.042969 6.300782-6.296876l7.359374-48.90625c.585938-3.890624 3.835938-4.703124 4.820313-4.859374.984375-.152344 4.328125-.390626 6.085937 3.132812l3.179688 6.363281c1.851562 3.703125 6.355469 5.207031 10.0625 3.351563 3.707031-1.851563 5.207031-6.355469 3.355469-10.058594l-3.179688-6.363281c-4.136719-8.273438-12.710937-12.683594-21.851562-11.238281-2.6875.425781-5.164063 1.328124-7.367188 2.609374l-234.457031-234.457031c-2.929688-2.929687-7.679688-2.929687-10.605469 0-2.929687 2.925781-2.929687 7.675781 0 10.605469l29.429688 29.429688c2.867187 2.867187 4.445312 6.675781 4.445312 10.726562 0 4.054688-1.582031 7.863281-4.445312 10.730469-2.863281 2.863281-6.675781 4.441406-10.730469 4.441406-4.050781 0-7.859375-1.578125-10.726562-4.441406l-145.660157-145.660157c-2.925781-2.925781-7.675781-2.925781-10.605469 0-2.925781 2.929688-2.925781 7.679688 0 10.605469l224.441407 224.441407c5.917969 5.917968 5.917969 15.542968 0 21.457031-5.914063 5.917969-15.539063 5.917969-21.457031 0l-32.0625-32.0625c-2.925782-2.929688-7.675782-2.929688-10.605469 0-2.925781 2.929687-2.925781 7.679687 0 10.605469l158.308593 158.308593c-1.277343 2.207031-2.183593 4.679688-2.609374 7.367188-1.445313 9.136719 2.964843 17.714843 11.238281 21.851562l39.285156 19.636719-7.203125 43.320312c-1.519531 9.125 2.828125 17.738282 11.070312 21.9375 3.082032 1.570313 6.34375 2.335938 9.558594 2.335938 5.378906 0 10.628906-2.148438 14.691406-6.273438l30.8125-31.292968 38.976563 20.238281c8.210937 4.261719 17.742187 2.792969 24.28125-3.75 6.542969-6.539063 8.011719-16.070313 3.75-24.28125l-20.238281-38.976563 31.289062-30.8125c6.59375-6.492187 8.140625-16.011718 3.941406-24.253906zm-272.421874-103.292968c3.832031-3.828126 6.5-8.511719 7.839843-13.617188l86.953125 86.953125c1.464844 1.464844 3.382813 2.195313 5.300782 2.195313 1.921874 0 3.839843-.730469 5.304687-2.195313 2.929687-2.929687 2.929687-7.679687 0-10.605469l-165.734375-165.734375c5.105469-1.339843 9.789062-4.007812 13.617188-7.839843 3.832031-3.832032 6.5-8.511719 7.839843-13.617188l187.902344 187.902344c-.273437.941406-.5 1.90625-.652344 2.902344l-6.535156 43.429687-43.425781 6.535156c-1 .152344-1.964844.378907-2.90625.652344l-109.121094-109.117187c5.105469-1.34375 9.789062-4.011719 13.617188-7.84375zm0 0"/><path d="m285.523438 87.71875c.246093.34375.511718.675781.816406.984375 4.800781 4.796875 4.800781 12.605469 0 17.40625-2.324219 2.324219-5.414063 3.605469-8.703125 3.605469-2.886719 0-5.617188-.988282-7.816407-2.800782l-16.320312-16.320312c-2.90625-2.90625-7.675781-3.199219-10.664062-.386719-3.09375 2.914063-3.148438 7.785157-.167969 10.769531l15.066406 15.066407c.183594.230469.378906.457031.59375.671875.402344.40625.820313.789062 1.242187 1.164062l82.136719 82.328125c2.003907 2.007813 4.332031 3.660157 6.886719 4.886719l23.40625 11.222656-3.976562 23.914063c-1.125 6.75 2.035156 13.632812 8.101562 16.792969 2.355469 1.230468 4.855469 1.832031 7.320312 1.832031 4.039063 0 7.984376-1.617188 11.035157-4.714844l17.289062-17.558594 21.871094 11.355469c6.171875 3.207031 13.335937 2.09375 18.25-2.832031 4.863281-4.875 5.792969-12.449219 2.621094-18.5625l-11.179688-21.523438 17.28125-17.015625c4.90625-4.832031 6.363281-12.320312 3.25-18.460937-3.148437-6.203125-9.621093-9.480469-16.484375-8.335938l-29.464844 4.898438c-4.050781.671875-7.0625 4.378906-6.511718 8.449219.570312 4.210937 4.5 7.089843 8.664062 6.398437l29.773438-4.953125c.238281-.039062.441406-.074219.644531.328125.203125.394531.058594.542969-.113281.710937l-21.507813 21.175782c-2.34375 2.3125-2.910156 5.878906-1.394531 8.800781l13.910156 26.785156c.113282.214844.207032.398438-.109375.714844-.316406.316406-.5.222656-.714843.109375l-26.785157-13.910156c-2.921875-1.515625-6.492187-.949219-8.800781 1.394531l-21.175781 21.507813c-.167969.171874-.316407.316406-.710938.113281-.402343-.199219-.367187-.40625-.328125-.644531l4.953125-29.773438c.539063-3.246094-1.101562-6.464844-4.042969-7.9375l-27-13.496094c-.214843-.105468-.402343-.199218-.332031-.640625.070313-.441406.277344-.472656.515625-.507812l29.84375-4.492188c3.257813-.492187 5.8125-3.046875 6.300782-6.300781l4.492187-29.847656c.035156-.238282.0625-.464844.507813-.511719 3.242187-.339844 13.167968 3.746094 16.949218 1.371094 3.507813-2.207031 3.710938-7.429688.78125-10.359375l-82.066406-82.0625c-2.902344-2.90625-7.671875-3.199219-10.664062-.386719-3.09375 2.914063-3.148438 7.785156-.164063 10.769531l9.953125 9.949219c4.527344 4.53125 5.140625 11.851563 1.054688 16.785156-4.6875 5.664063-13.132813 5.957031-18.210938.878907-.210938-.210938-.4375-.402344-.667969-.585938l-93.519531-93.519531c-2.90625-2.902344-7.675781-3.195313-10.664062-.382813-3.09375 2.914063-3.148438 7.785156-.167969 10.765625zm58.117187 19.414062c3.128906-3.128906 5.332031-6.839843 6.621094-10.785156l40.1875 40.1875c-4.148438 2.277344-7.050781 6.34375-7.800781 11.328125l-3.667969 24.367188-24.367188 3.667969c-4.136719.621093-7.636719 2.726562-10.011719 5.796874l-58.375-58.375c3.921876-1.292968 7.609376-3.488281 10.722657-6.605468 3.160156-3.160156 5.378906-6.917969 6.660156-10.90625l32.433594 32.429687c1.464843 1.464844 3.382812 2.195313 5.300781 2.195313 1.921875 0 3.839844-.730469 5.304688-2.195313 2.929687-2.929687 2.929687-7.675781 0-10.605469l-13.84375-13.84375c4.042968-1.3125 7.746093-3.566406 10.835937-6.65625zm0 0"/><path d="m115.53125 332.710938c.246094.339843.511719.671874.820312.980468 4.796876 4.796875 4.796876 12.605469 0 17.40625-2.328124 2.324219-5.417968 3.605469-8.707031 3.605469-2.886719 0-5.617187-.988281-7.816406-2.800781l-16.320313-16.320313c-2.90625-2.90625-7.675781-3.199219-10.664062-.386719-3.09375 2.914063-3.148438 7.785157-.167969 10.769532l15.066407 15.066406c.183593.230469.378906.457031.59375.671875.402343.40625.820312.789063 1.242187 1.164063l82.136719 82.328124c2.003906 2.007813 4.332031 3.660157 6.886718 4.886719l23.40625 11.222657-3.976562 23.914062c-1.125 6.75 2.035156 13.632812 8.101562 16.792969 2.359376 1.230469 4.855469 1.832031 7.320313 1.832031 4.039063 0 7.984375-1.617188 11.035156-4.714844l17.289063-17.558594 21.871094 11.355469c6.171874 3.207031 13.335937 2.09375 18.25-2.832031 4.867187-4.875 5.792968-12.449219 2.621093-18.5625l-11.179687-21.523438 17.28125-17.015624c4.90625-4.832032 6.363281-12.320313 3.25-18.460938-3.148438-6.203125-9.621094-9.480469-16.484375-8.335938l-29.464844 4.898438c-4.050781.671875-7.0625 4.378906-6.511719 8.449219.570313 4.210937 4.5 7.089843 8.664063 6.398437l29.773437-4.953125c.238282-.039062.441406-.070312.644532.328125.203124.398438.058593.542969-.113282.710938l-21.507812 21.175781c-2.34375 2.3125-2.910156 5.878906-1.394532 8.800781l13.910157 26.785156c.113281.214844.207031.398438-.109375.714844s-.5.222656-.714844.109375l-26.785156-13.910156c-2.921875-1.515625-6.492188-.949219-8.800782 1.394531l-21.175781 21.507813c-.167969.171875-.316406.316406-.710937.117187-.402344-.203125-.367188-.410156-.328125-.648437l4.953125-29.773438c.539062-3.246093-1.101563-6.464843-4.042969-7.9375l-27-13.496093c-.214844-.105469-.402344-.199219-.332031-.640626.070312-.441406.277344-.472656.515625-.507812l29.84375-4.492188c3.257812-.492187 5.8125-3.046874 6.300781-6.300781l4.492188-29.847656c.035156-.238281.0625-.464844.507812-.511719 3.242188-.339844 13.167969 3.746094 16.949219 1.371094 3.507812-2.207031 3.710937-7.429688.78125-10.359375l-82.066407-82.0625c-2.902343-2.90625-7.671874-3.199219-10.664062-.386719-3.09375 2.914063-3.148438 7.785156-.164062 10.769532l9.953124 9.949218c4.527344 4.53125 5.140626 11.851563 1.054688 16.789063-4.6875 5.660156-13.132812 5.953125-18.210938.878906-.210937-.214844-.4375-.40625-.667968-.589844l-93.519532-93.519531c-2.90625-2.902344-7.675781-3.195312-10.664062-.382812-3.09375 2.914062-3.148438 7.785156-.167969 10.765624zm58.117188 19.410156c3.128906-3.128906 5.332031-6.839844 6.621093-10.785156l40.1875 40.1875c-4.148437 2.277343-7.050781 6.34375-7.800781 11.328124l-3.664062 24.367188-24.371094 3.667969c-4.136719.621093-7.636719 2.726562-10.011719 5.796875l-58.375-58.375c3.921875-1.292969 7.609375-3.488282 10.722656-6.605469 3.160157-3.160156 5.378907-6.914063 6.660157-10.90625l32.433593 32.429687c1.464844 1.464844 3.382813 2.195313 5.300781 2.195313 1.921876 0 3.839844-.730469 5.304688-2.195313 2.929688-2.929687 2.929688-7.675781 0-10.605468l-13.84375-13.84375c4.042969-1.3125 7.746094-3.5625 10.835938-6.65625zm0 0"/></svg>