<?xml version="1.0" encoding="iso-8859-1"?>
<!-- Generator: Adobe Illustrator 19.0.0, SVG Export Plug-In . SVG Version: 6.00 Build 0)  -->
<svg version="1.1" id="Layer_1" xmlns="http://www.w3.org/2000/svg" xmlns:xlink="http://www.w3.org/1999/xlink" x="0px" y="0px"
	 viewBox="0 0 512 512" style="enable-background:new 0 0 512 512;" xml:space="preserve">
<path style="fill:#FF7956;" d="M256,398.674c3.154,0,6.309,0.789,9.157,2.368l129.114,71.567l-28.166-144.91
	c-1.242-6.394,0.896-12.975,5.66-17.417l107.962-100.68L333.207,191.61c-6.464-0.794-12.064-4.862-14.816-10.765L256,47.055
	l-62.39,133.79c-2.753,5.902-8.352,9.971-14.816,10.765L32.274,209.602l107.962,100.68c4.764,4.442,6.902,11.024,5.66,17.417
	l-28.165,144.91l129.114-71.567C249.691,399.463,252.845,398.674,256,398.674z"/>
<path style="fill:#FF5023;" d="M232.552,38.813l8.077-17.321c2.785-5.973,8.78-9.791,15.37-9.791s12.584,3.819,15.37,9.791
	l67.415,144.566l158.322,19.442c6.542,0.803,12.025,5.323,14.062,11.592c2.037,6.268,0.258,13.148-4.563,17.643L389.948,323.523
	l30.435,156.581c1.257,6.469-1.347,13.082-6.68,16.956c-2.957,2.148-6.457,3.239-9.97,3.239c-2.822,0-5.653-0.703-8.22-2.126
	L256,420.843l-139.514,77.331c-5.765,3.194-12.858,2.761-18.189-1.113c-5.332-3.874-7.937-10.486-6.68-16.956l30.434-156.581
	L5.394,214.735c-4.82-4.495-6.599-11.375-4.563-17.643c2.037-6.268,7.521-10.788,14.062-11.592l158.323-19.442l41.411-88.803
	L232.552,38.813z M256,384.493c2.833,0,5.664,0.709,8.222,2.126l115.928,64.258l-25.289-130.11
	c-1.115-5.741,0.805-11.65,5.081-15.639l96.936-90.397l-131.556-16.155c-5.805-0.713-10.831-4.365-13.303-9.666L256,68.786
	l-56.017,120.125c-2.472,5.299-7.499,8.953-13.303,9.666L55.123,214.731l96.936,90.397c4.277,3.988,6.197,9.898,5.081,15.639
	l-25.289,130.11l115.928-64.258C250.336,385.202,253.168,384.493,256,384.493z"/>
<path style="fill:#891C00;" d="M299.603,266.66v-8.845h-14.969c6.007-3.752,10.006-10.42,10.006-18.025
	c0-11.731-9.51-21.241-21.241-21.241c-8.793,0-16.338,5.343-19.566,12.96c-3.228-7.617-10.773-12.96-19.566-12.96
	c-21.707,0-21.241,21.241-21.241,21.241c0,7.605,3.999,14.273,10.006,18.025h-13.889v36.988h20.508l-9.929,47.022
	c-0.896,4.249,1.82,8.42,6.069,9.317c0.547,0.115,1.093,0.171,1.632,0.171c3.638,0,6.903-2.539,7.685-6.24l10.271-48.647
	c0.115-0.545,0.169-1.088,0.169-1.624h15.599c0,0.536,0.055,1.079,0.169,1.624l10.271,48.647c0.782,3.702,4.048,6.24,7.685,6.24
	c0.538,0,1.085-0.056,1.632-0.171c4.249-0.897,6.966-5.069,6.069-9.317l-9.929-47.022h22.556v-11.257l16.885,8.041v-32.968
	L299.603,266.66z"/>
<g style="opacity:0.09;">
	<path style="fill:#613DE2;" d="M497.107,185.499l-55.915-6.867C329.99,284.628,203.151,338.049,114.098,364.439L91.617,480.104
		c-1.257,6.47,1.348,13.082,6.68,16.956c5.332,3.874,12.425,4.308,18.189,1.113L256,420.843l139.514,77.331
		c2.567,1.423,5.398,2.126,8.22,2.126c3.513,0,7.012-1.09,9.97-3.239c5.333-3.874,7.937-10.486,6.68-16.956l-30.435-156.581
		l116.658-108.788c4.82-4.495,6.599-11.375,4.563-17.643C509.133,190.823,503.649,186.303,497.107,185.499z"/>
</g>
<g>
</g>
<g>
</g>
<g>
</g>
<g>
</g>
<g>
</g>
<g>
</g>
<g>
</g>
<g>
</g>
<g>
</g>
<g>
</g>
<g>
</g>
<g>
</g>
<g>
</g>
<g>
</g>
<g>
</g>
</svg>
