<?xml version="1.0" encoding="iso-8859-1"?>
<!-- Generator: Adobe Illustrator 19.0.0, SVG Export Plug-In . SVG Version: 6.00 Build 0)  -->
<svg version="1.1" id="Capa_1" xmlns="http://www.w3.org/2000/svg" xmlns:xlink="http://www.w3.org/1999/xlink" x="0px" y="0px"
	 viewBox="0 0 512 512" style="enable-background:new 0 0 512 512;" xml:space="preserve">
<g>
	<g>
		<path d="M510.83,196.488c-2.879-8.864-10.718-15.326-19.969-16.462l-149.413-18.348L277.826,25.246
			c-3.939-8.447-12.507-13.904-21.826-13.904c-9.32,0-17.887,5.458-21.826,13.904l-7.837,16.806
			c-1.78,3.818-0.128,8.357,3.689,10.138c3.817,1.78,8.358,0.128,10.138-3.689L248,31.694c1.443-3.095,4.583-5.096,7.999-5.096
			c3.415,0,6.555,2.001,7.999,5.096l65.409,140.264c1.112,2.384,3.373,4.027,5.984,4.347L489,195.168
			c3.39,0.417,6.263,2.785,7.319,6.034c1.056,3.248,0.124,6.852-2.375,9.182L380.759,315.935c-1.923,1.794-2.787,4.452-2.285,7.034
			l29.529,151.921c0.652,3.353-0.713,6.817-3.476,8.825c-1.519,1.103-3.313,1.686-5.189,1.686c-1.492,0-2.971-0.382-4.277-1.107
			l-135.362-75.03c-2.302-1.275-5.096-1.275-7.396,0l-135.361,75.029c-2.987,1.655-6.704,1.429-9.467-0.579
			s-4.128-5.471-3.477-8.823l29.528-151.921c0.501-2.582-0.362-5.24-2.285-7.034L18.054,210.383
			c-2.498-2.329-3.431-5.933-2.375-9.181c1.056-3.249,3.928-5.617,7.318-6.034l153.611-18.863c0.303-0.037,0.597-0.097,0.886-0.167
			c0.078-0.019,0.156-0.044,0.233-0.065c0.218-0.06,0.43-0.129,0.639-0.207c0.076-0.029,0.152-0.058,0.227-0.089
			c0.226-0.094,0.445-0.197,0.659-0.31c0.046-0.024,0.093-0.045,0.137-0.07c0.262-0.146,0.517-0.306,0.758-0.481
			c0.025-0.018,0.048-0.039,0.073-0.058c0.207-0.154,0.405-0.318,0.594-0.491c0.064-0.058,0.125-0.119,0.188-0.18
			c0.152-0.148,0.297-0.303,0.435-0.463c0.057-0.066,0.115-0.129,0.17-0.197c0.182-0.225,0.354-0.458,0.51-0.702
			c0.01-0.016,0.018-0.033,0.027-0.049c0.147-0.236,0.279-0.48,0.4-0.731c0.014-0.029,0.033-0.055,0.047-0.084l40.178-86.16
			c1.78-3.818,0.128-8.358-3.689-10.138c-3.817-1.779-8.357-0.128-10.138,3.689l-38.391,82.328L21.138,180.026
			c-9.251,1.136-17.089,7.598-19.968,16.462c-2.88,8.864-0.337,18.699,6.48,25.054l110.093,102.667L89.021,471.98
			c-1.778,9.149,1.946,18.6,9.486,24.077c7.54,5.479,17.679,6.1,25.831,1.581L256,424.658l131.663,72.98
			c3.564,1.975,7.601,3.019,11.674,3.019c5.119,0,10.015-1.59,14.156-4.599c7.54-5.478,11.264-14.929,9.486-24.078l-28.722-147.771
			L504.35,221.543C511.167,215.186,513.711,205.351,510.83,196.488z"/>
	</g>
</g>
<g>
	<g>
		<path d="M456.102,221.539c2.168-2.022,2.968-5.116,2.053-7.936s-3.383-4.853-6.325-5.214l-127.642-15.676
			c-3.04-0.373-5.629-2.253-6.924-5.03l-54.35-116.551c-1.253-2.687-3.949-4.404-6.913-4.404s-5.66,1.717-6.913,4.404
			l-54.35,116.551c-1.295,2.776-3.882,4.656-6.924,5.03L60.172,208.389c-2.943,0.361-5.409,2.394-6.326,5.214
			c-0.916,2.819-0.116,5.915,2.053,7.937l94.051,87.706c2.241,2.089,3.228,5.131,2.645,8.138l-24.537,126.238
			c-0.565,2.91,0.606,5.885,3.005,7.627c2.397,1.742,5.588,1.939,8.182,0.5l112.476-62.344c2.613-1.447,5.948-1.447,8.558,0
			l112.477,62.346c1.155,0.64,2.429,0.956,3.697,0.956c1.581,0,3.155-0.49,4.484-1.458c2.398-1.742,3.57-4.716,3.005-7.627
			l-24.537-126.237c-0.585-3.008,0.404-6.05,2.645-8.139L456.102,221.539z M344.429,320.295l21.415,110.18l-98.171-54.415
			c-3.563-1.974-7.601-3.019-11.674-3.019c-4.074,0-8.111,1.044-11.675,3.019l-98.171,54.415l21.416-110.18
			c1.594-8.205-1.104-16.507-7.216-22.207l-82.086-76.551l111.404-13.68c8.297-1.018,15.359-6.15,18.891-13.725L256,92.407
			l47.438,101.724c3.532,7.576,10.595,12.707,18.891,13.725l111.404,13.681l-82.087,76.55
			C345.533,303.788,342.835,312.089,344.429,320.295z"/>
	</g>
</g>
<g>
	<g>
		<path d="M318.76,255.161c-2.214-1.399-4.989-1.563-7.353-0.437l-6.17,2.938c-1.068-2.331-3.27-4.035-5.904-4.39
			c1.166-3.12,1.784-6.471,1.784-9.929c0-15.57-12.667-28.237-28.237-28.237c-7.177,0-13.892,2.696-18.984,7.319
			c-5.092-4.622-11.808-7.319-18.985-7.319c-4.213,0-7.628,3.415-7.628,7.628s3.416,7.628,7.628,7.628
			c5.226,0,9.921,3.11,11.96,7.922c1.195,2.82,3.961,4.652,7.023,4.652c3.064,0,5.829-1.832,7.024-4.652
			c2.039-4.813,6.733-7.922,11.959-7.922c7.157,0,12.98,5.823,12.98,12.98c0,4.505-2.289,8.624-6.122,11.018
			c-2.887,1.803-4.23,5.3-3.291,8.572c0.938,3.272,3.929,5.527,7.332,5.527h6.895v0.954v16.383v3.293h-22.088
			c-0.002,0-0.005,0-0.007,0h-30.29c-0.014,0-0.028,0-0.043,0h-20.082v-20.63h5.848c3.403,0,6.396-2.255,7.332-5.527
			c0.938-3.272-0.405-6.769-3.291-8.572c-3.834-2.394-6.122-6.513-6.122-11.018c0-4.213-3.415-7.628-7.628-7.628
			s-7.628,3.415-7.628,7.628c0,3.53,0.645,6.95,1.858,10.125c-3.242,0.88-5.626,3.843-5.626,7.363v35.887
			c0,4.213,3.415,7.628,7.628,7.628h18.288l-8.022,37.995c-0.87,4.122,1.766,8.169,5.888,9.04c0.531,0.112,1.061,0.166,1.584,0.166
			c3.529,0,6.698-2.463,7.457-6.054l8.687-41.147h18.018l8.688,41.147c0.759,3.591,3.927,6.054,7.457,6.054
			c0.522,0,1.053-0.054,1.584-0.166c4.122-0.871,6.759-4.918,5.888-9.04l-8.023-37.995h20.273c3.833,0,6.996-2.83,7.538-6.512
			l5.566,2.651c1.041,0.495,2.161,0.741,3.279,0.741c1.42,0,2.835-0.397,4.073-1.178c2.213-1.398,3.556-3.833,3.556-6.451V261.61
			C322.317,258.993,320.974,256.558,318.76,255.161z M307.06,281.516l-1.126-0.536v-6.75l1.126-0.536V281.516z"/>
	</g>
</g>
<g>
</g>
<g>
</g>
<g>
</g>
<g>
</g>
<g>
</g>
<g>
</g>
<g>
</g>
<g>
</g>
<g>
</g>
<g>
</g>
<g>
</g>
<g>
</g>
<g>
</g>
<g>
</g>
<g>
</g>
</svg>
